<?xml version="1.0" encoding="UTF-8"?> <svg xmlns="http://www.w3.org/2000/svg" version="1.1" viewBox="0 0 430.4 87.4"><defs><style> .cls-1 { letter-spacing: 0em; } .cls-1, .cls-2, .cls-3, .cls-4, .cls-5 { isolation: isolate; } .cls-1, .cls-2, .cls-4, .cls-5 { fill: #fff; font-family: ArialMT, Arial; font-size: 42.6px; } .cls-2 { letter-spacing: 0em; } .cls-5 { letter-spacing: 0em; } </style></defs><g><g id="Layer_1"><g class="cls-3"><text class="cls-4" transform="translate(0 36)"><tspan x="0" y="0">Na</tspan></text><text class="cls-5" transform="translate(54.8 36)"><tspan x="0" y="0">v</tspan></text><text class="cls-4" transform="translate(76.6 36)"><tspan x="0" y="0">e</tspan></text><text class="cls-4" transform="translate(101 36)"><tspan x="0" y="0">e</tspan></text><text class="cls-4" transform="translate(124.5 36)"><tspan x="0" y="0">n </tspan></text><text class="cls-1" transform="translate(157 36)"><tspan x="0" y="0">J</tspan></text><text class="cls-4" transform="translate(177.8 36)"><tspan x="0" y="0">i</tspan></text><text class="cls-4" transform="translate(188.1 36)"><tspan x="0" y="0">n</tspan></text><text class="cls-4" transform="translate(212.2 36)"><tspan x="0" y="0">d</tspan></text><text class="cls-2" transform="translate(235.3 36)"><tspan x="0" y="0">a</tspan></text><text class="cls-4" transform="translate(258.7 36)"><tspan x="0" y="0">l</tspan></text><text class="cls-4" transform="translate(0 75.5)"><tspan x="0" y="0">S</tspan></text><text class="cls-4" transform="translate(27.7 75.5)"><tspan x="0" y="0">c</tspan></text><text class="cls-4" transform="translate(50.2 75.5)"><tspan x="0" y="0">h</tspan></text><text class="cls-5" transform="translate(74.2 75.5)"><tspan x="0" y="0">o</tspan></text><text class="cls-2" transform="translate(97.3 75.5)"><tspan x="0" y="0">o</tspan></text><text class="cls-4" transform="translate(120.9 75.5)"><tspan x="0" y="0">l </tspan></text><text class="cls-4" transform="translate(136.9 75.5)"><tspan x="0" y="0">o</tspan></text><text class="cls-4" transform="translate(161.1 75.5)"><tspan x="0" y="0">f </tspan></text><text class="cls-4" transform="translate(181.3 75.5)"><tspan x="0" y="0">M</tspan></text><text class="cls-4" transform="translate(215.5 75.5)"><tspan x="0" y="0">a</tspan></text><text class="cls-4" transform="translate(238.8 75.5)"><tspan x="0" y="0">n</tspan></text><text class="cls-4" transform="translate(262.8 75.5)"><tspan x="0" y="0">a</tspan></text><text class="cls-4" transform="translate(286.9 75.5)"><tspan x="0" y="0">g</tspan></text><text class="cls-4" transform="translate(310 75.5)"><tspan x="0" y="0">e</tspan></text><text class="cls-4" transform="translate(332.6 75.5)"><tspan x="0" y="0">m</tspan></text><text class="cls-4" transform="translate(367.7 75.5)"><tspan x="0" y="0">e</tspan></text><text class="cls-4" transform="translate(391.2 75.5)"><tspan x="0" y="0">n</tspan></text><text class="cls-4" transform="translate(414.2 75.5)"><tspan x="0" y="0">t</tspan></text></g></g></g></svg> 